HIERARCHY
ROOT Hips
{
	OFFSET 0.000000 97.167313 0.000000
	CHANNELS 6 Xposition Yposition Zposition Xrotation Yrotation Zrotation
	JOINT Spine
	{
		OFFSET 0.000000 13.784798 0.064400
		CHANNELS 3 Xrotation Yrotation Zrotation
		JOINT Spine1
		{
			OFFSET 0.000000 12.037903 0.404700
			CHANNELS 3 Xrotation Yrotation Zrotation
			JOINT Spine2
			{
				OFFSET 0.000000 17.795601 0.420200
				CHANNELS 3 Xrotation Yrotation Zrotation
				JOINT Neck
				{
					OFFSET 0.000000 39.131302 11.954600
					CHANNELS 3 Xrotation Yrotation Zrotation
					JOINT Head
					{
						OFFSET 0.000000 14.456192 15.627699
						CHANNELS 3 Xrotation Yrotation Zrotation
						JOINT HeadTop_End
						{
							OFFSET 0.000000 15.703506 7.603401
							CHANNELS 3 Xrotation Yrotation Zrotation
							End Site
							{
								OFFSET 0.000000 17.447403 0.000000
							}
						}
					}
				}
				JOINT LeftShoulder
				{
					OFFSET 17.399500 24.608795 1.168800
					CHANNELS 3 Xrotation Yrotation Zrotation
					JOINT LeftArm
					{
						OFFSET 18.980635 5.765305 1.818600
						CHANNELS 3 Xrotation Yrotation Zrotation
						JOINT LeftForeArm
						{
							OFFSET 49.290169 0.000000 0.000000
							CHANNELS 3 Xrotation Yrotation Zrotation
							JOINT LeftHand
							{
								OFFSET 31.562012 0.000000 0.000000
								CHANNELS 3 Xrotation Yrotation Zrotation
								JOINT LeftHandThumb1
								{
									OFFSET 6.133995 -4.388519 7.076070
									CHANNELS 3 Xrotation Yrotation Zrotation
									JOINT LeftHandThumb2
									{
										OFFSET 6.037666 -3.485840 3.485847
										CHANNELS 3 Xrotation Yrotation Zrotation
										JOINT LeftHandThumb3
										{
											OFFSET 6.496506 -3.750763 3.750761
											CHANNELS 3 Xrotation Yrotation Zrotation
											JOINT LeftHandThumb4
											{
												OFFSET 5.616882 -3.242905 3.242910
												CHANNELS 3 Xrotation Yrotation Zrotation
												End Site
												{
													OFFSET -1.254608 7.132141 0.375429
												}
											}
										}
									}
								}
								JOINT LeftHandPinky1
								{
									OFFSET 18.920792 -0.453171 -11.426712
									CHANNELS 3 Xrotation Yrotation Zrotation
									JOINT LeftHandPinky2
									{
										OFFSET 4.919586 0.000000 0.000000
										CHANNELS 3 Xrotation Yrotation Zrotation
										JOINT LeftHandPinky3
										{
											OFFSET 5.233047 0.000000 0.000000
											CHANNELS 3 Xrotation Yrotation Zrotation
											JOINT LeftHandPinky4
											{
												OFFSET 5.571716 0.000000 0.000000
												CHANNELS 3 Xrotation Yrotation Zrotation
												End Site
												{
													OFFSET -3.459808 4.342407 -0.466164
												}
											}
										}
									}
								}
								JOINT LeftHandRing1
								{
									OFFSET 22.726120 -0.094986 -6.500475
									CHANNELS 3 Xrotation Yrotation Zrotation
									JOINT LeftHandRing2
									{
										OFFSET 6.408615 0.000000 0.000000
										CHANNELS 3 Xrotation Yrotation Zrotation
										JOINT LeftHandRing3
										{
											OFFSET 6.150223 0.000000 0.000000
											CHANNELS 3 Xrotation Yrotation Zrotation
											JOINT LeftHandRing4
											{
												OFFSET 6.145386 0.000000 0.000000
												CHANNELS 3 Xrotation Yrotation Zrotation
												End Site
												{
													OFFSET -3.671402 4.923981 -0.202372
												}
											}
										}
									}
								}
								JOINT LeftHandMiddle1
								{
									OFFSET 23.373947 0.000000 0.000001
									CHANNELS 3 Xrotation Yrotation Zrotation
									JOINT LeftHandMiddle2
									{
										OFFSET 6.996567 0.000000 0.000000
										CHANNELS 3 Xrotation Yrotation Zrotation
										JOINT LeftHandMiddle3
										{
											OFFSET 7.015945 0.000000 0.000000
											CHANNELS 3 Xrotation Yrotation Zrotation
											JOINT LeftHandMiddle4
											{
												OFFSET 7.721573 0.000000 0.000000
												CHANNELS 3 Xrotation Yrotation Zrotation
												End Site
												{
													OFFSET -4.651108 6.158463 0.251582
												}
											}
										}
									}
								}
								JOINT LeftHandIndex1
								{
									OFFSET 21.310577 -0.490082 6.209344
									CHANNELS 3 Xrotation Yrotation Zrotation
									JOINT LeftHandIndex2
									{
										OFFSET 7.536453 0.000000 0.000000
										CHANNELS 3 Xrotation Yrotation Zrotation
										JOINT LeftHandIndex3
										{
											OFFSET 7.512344 0.000000 0.000000
											CHANNELS 3 Xrotation Yrotation Zrotation
											JOINT LeftHandIndex4
											{
												OFFSET 10.212402 0.000000 0.000001
												CHANNELS 3 Xrotation Yrotation Zrotation
												End Site
												{
													OFFSET -5.180801 8.690506 1.388433
												}
											}
										}
									}
								}
							}
						}
					}
				}
				JOINT RightShoulder
				{
					OFFSET -17.399500 24.608795 1.168800
					CHANNELS 3 Xrotation Yrotation Zrotation
					JOINT RightArm
					{
						OFFSET -18.980635 5.765305 1.818600
						CHANNELS 3 Xrotation Yrotation Zrotation
						JOINT RightForeArm
						{
							OFFSET -49.290169 0.000000 0.000000
							CHANNELS 3 Xrotation Yrotation Zrotation
							JOINT RightHand
							{
								OFFSET -31.562012 0.000000 0.000000
								CHANNELS 3 Xrotation Yrotation Zrotation
								JOINT RightHandThumb1
								{
									OFFSET -6.133995 -4.388519 7.076070
									CHANNELS 3 Xrotation Yrotation Zrotation
									JOINT RightHandThumb2
									{
										OFFSET -6.037666 -3.485840 3.485847
										CHANNELS 3 Xrotation Yrotation Zrotation
										JOINT RightHandThumb3
										{
											OFFSET -6.496506 -3.750763 3.750761
											CHANNELS 3 Xrotation Yrotation Zrotation
											JOINT RightHandThumb4
											{
												OFFSET -5.616882 -3.242905 3.242910
												CHANNELS 3 Xrotation Yrotation Zrotation
												End Site
												{
													OFFSET 1.254608 7.132141 0.375429
												}
											}
										}
									}
								}
								JOINT RightHandIndex1
								{
									OFFSET -21.310577 -0.490082 6.209344
									CHANNELS 3 Xrotation Yrotation Zrotation
									JOINT RightHandIndex2
									{
										OFFSET -7.536453 0.000000 0.000000
										CHANNELS 3 Xrotation Yrotation Zrotation
										JOINT RightHandIndex3
										{
											OFFSET -7.512344 0.000000 0.000000
											CHANNELS 3 Xrotation Yrotation Zrotation
											JOINT RightHandIndex4
											{
												OFFSET -10.212402 0.000000 0.000001
												CHANNELS 3 Xrotation Yrotation Zrotation
												End Site
												{
													OFFSET 5.180801 8.690506 1.388433
												}
											}
										}
									}
								}
								JOINT RightHandMiddle1
								{
									OFFSET -23.373947 0.000000 0.000001
									CHANNELS 3 Xrotation Yrotation Zrotation
									JOINT RightHandMiddle2
									{
										OFFSET -6.996567 0.000000 0.000000
										CHANNELS 3 Xrotation Yrotation Zrotation
										JOINT RightHandMiddle3
										{
											OFFSET -7.015945 0.000000 0.000000
											CHANNELS 3 Xrotation Yrotation Zrotation
											JOINT RightHandMiddle4
											{
												OFFSET -7.721573 0.000000 0.000000
												CHANNELS 3 Xrotation Yrotation Zrotation
												End Site
												{
													OFFSET 4.651108 6.158463 0.251582
												}
											}
										}
									}
								}
								JOINT RightHandRing1
								{
									OFFSET -22.726120 -0.094986 -6.500475
									CHANNELS 3 Xrotation Yrotation Zrotation
									JOINT RightHandRing2
									{
										OFFSET -6.408615 0.000000 0.000000
										CHANNELS 3 Xrotation Yrotation Zrotation
										JOINT RightHandRing3
										{
											OFFSET -6.150223 0.000000 0.000000
											CHANNELS 3 Xrotation Yrotation Zrotation
											JOINT RightHandRing4
											{
												OFFSET -6.145386 0.000000 0.000000
												CHANNELS 3 Xrotation Yrotation Zrotation
												End Site
												{
													OFFSET 3.671402 4.923981 -0.202372
												}
											}
										}
									}
								}
								JOINT RightHandPinky1
								{
									OFFSET -18.920792 -0.453171 -11.426712
									CHANNELS 3 Xrotation Yrotation Zrotation
									JOINT RightHandPinky2
									{
										OFFSET -4.919586 0.000000 0.000000
										CHANNELS 3 Xrotation Yrotation Zrotation
										JOINT RightHandPinky3
										{
											OFFSET -5.233047 0.000000 0.000000
											CHANNELS 3 Xrotation Yrotation Zrotation
											JOINT RightHandPinky4
											{
												OFFSET -5.571716 0.000000 0.000000
												CHANNELS 3 Xrotation Yrotation Zrotation
												End Site
												{
													OFFSET 3.459808 4.342407 -0.466164
												}
											}
										}
									}
								}
							}
						}
					}
				}
			}
		}
	}
	JOINT LeftUpLeg
	{
		OFFSET 19.899099 -7.885101 -3.429500
		CHANNELS 3 Xrotation Yrotation Zrotation
		JOINT LeftLeg
		{
			OFFSET 1.745560 -36.997807 10.304700
			CHANNELS 3 Xrotation Yrotation Zrotation
			JOINT LeftFoot
			{
				OFFSET -1.745558 -29.803308 -13.615400
				CHANNELS 3 Xrotation Yrotation Zrotation
				JOINT LeftToeBase
				{
					OFFSET 1.181900 -18.539904 15.226099
					CHANNELS 3 Xrotation Yrotation Zrotation
					JOINT LeftToe_End
					{
						OFFSET -0.863701 1.402801 16.534700
						CHANNELS 3 Xrotation Yrotation Zrotation
						End Site
						{
							OFFSET 0.000000 16.616566 0.000000
						}
					}
				}
			}
		}
	}
	JOINT RightUpLeg
	{
		OFFSET -19.899099 -7.885101 -3.429500
		CHANNELS 3 Xrotation Yrotation Zrotation
		JOINT RightLeg
		{
			OFFSET -1.745560 -36.997807 10.304700
			CHANNELS 3 Xrotation Yrotation Zrotation
			JOINT RightFoot
			{
				OFFSET 1.745558 -29.803308 -13.615400
				CHANNELS 3 Xrotation Yrotation Zrotation
				JOINT RightToeBase
				{
					OFFSET -1.181900 -18.539904 15.226099
					CHANNELS 3 Xrotation Yrotation Zrotation
					JOINT RightToe_End
					{
						OFFSET 0.863701 1.402801 16.534700
						CHANNELS 3 Xrotation Yrotation Zrotation
						End Site
						{
							OFFSET 0.000000 16.616566 0.000000
						}
					}
				}
			}
		}
	}
}
MOTION
Frames: 4
Frame Time: 0.033333
17.338791 81.384636 118.894928 -25.899637 22.032792 6.478464 10.312491 -8.613929 1.098401 3.502057 -3.081591 0.102227 3.514324 -3.066947 0.153060 1.886592 0.462002 -0.732244 -6.028263 -0.821522 4.737733 0.000000 -0.000000 -0.000000 0.653218 -16.860727 -9.795704 -18.312198 6.049159 -36.560459 0.000033 -68.537219 0.000026 -43.368508 -12.691199 -6.722738 -22.783320 -14.798033 12.273481 3.177524 10.434984 14.761910 3.183646 44.525238 6.829103 0.000001 0.000005 0.000002 -10.384498 21.658267 28.905910 0.259095 1.724596 -17.086458 1.563861 3.985544 -42.835292 -0.000002 0.000001 -0.000000 -6.404475 13.505526 28.373533 3.704307 5.444287 -68.441371 1.278684 3.654648 -38.556537 -0.000001 0.000000 0.000002 -1.001500 4.077878 21.074168 2.995890 5.109265 -60.749868 3.264591 5.250127 -63.725610 -0.000000 0.000000 0.000004 1.954050 -2.570003 26.064956 3.205832 5.220813 -63.081435 1.633122 4.058766 -43.822548 -0.000000 0.000003 0.000003 -0.009982 14.517205 15.624514 -13.245914 -7.340097 61.221588 -0.000004 39.558055 0.000012 0.737347 -4.816601 25.319300 -20.073135 16.089480 -24.921347 8.794370 -40.952735 -1.386060 -0.691390 -28.348881 -23.858563 0.000000 0.000001 -0.000001 1.261677 -5.061814 38.521529 3.026347 -4.362880 69.481206 0.158018 1.204126 -14.952679 -0.000003 -0.000003 -0.000001 2.918626 -6.583241 70.448087 0.644935 -2.366528 30.485043 0.153122 1.185595 -14.717208 -0.000001 0.000001 0.000001 6.107735 -7.226584 80.587845 0.334123 -1.733853 21.813925 0.002685 -0.158673 1.948215 -0.000002 0.000001 -0.000002 1.599889 -22.428683 96.251354 1.157941 -3.075130 41.260131 3.376107 -4.477887 74.016841 0.000001 0.000001 0.000002 32.802311 9.792986 0.685853 44.682264 0.753961 2.975213 -9.459807 -1.249933 -2.189609 -48.018480 -0.872390 1.302883 -0.000000 0.000001 0.000000 -19.530926 -6.545378 4.397347 34.903575 -7.577731 -0.319673 4.546036 4.687847 -3.133832 1.893816 0.000005 0.000004 -0.000000 0.000003 0.000000 
18.514263 80.786537 121.961060 -26.211088 23.142947 6.058770 10.618141 -8.647901 2.158144 3.446298 -3.094293 0.147158 3.457426 -3.079172 0.199460 1.923618 0.504832 -0.702959 -6.020825 -0.183354 4.725467 -0.000000 -0.000000 -0.000000 0.663511 -16.870171 -9.735921 -17.900980 5.846374 -36.470041 0.000120 -68.394898 0.000092 -43.766145 -12.975566 -6.564529 -22.783324 -14.798030 12.273483 3.239260 10.434615 14.715605 3.196576 44.525952 6.812403 0.000001 0.000001 -0.000002 -10.495638 21.740914 29.070935 0.264330 1.741490 -17.259108 1.571344 3.993575 -42.942800 -0.000001 -0.000000 0.000003 -6.267617 13.521430 27.881957 3.727585 5.453363 -68.686466 1.278683 3.654650 -38.556531 0.000001 -0.000002 0.000005 -0.974663 4.087796 20.667147 2.995719 5.109170 -60.748174 3.277424 5.256425 -63.865670 -0.000001 -0.000000 0.000004 1.885728 -2.460934 25.285283 3.178474 5.206905 -62.780490 1.657153 4.083600 -44.161066 0.000000 0.000001 0.000001 -0.061716 14.879939 16.021558 -12.751959 -7.428870 60.567051 -0.000005 40.264699 0.000024 0.313356 -5.194273 25.216153 -20.073130 16.089475 -24.921349 8.794368 -40.952732 -1.386058 -0.738289 -28.302422 -23.923557 0.000001 -0.000002 0.000004 1.248932 -5.069587 38.520505 3.024726 -4.362280 69.459896 0.157906 1.203674 -14.946914 -0.000002 0.000000 -0.000001 2.919505 -6.583537 70.444795 0.644521 -2.365814 30.475088 0.152802 1.184357 -14.701625 0.000002 -0.000001 -0.000006 6.112387 -7.227640 80.580926 0.334267 -1.734177 21.818143 0.002686 -0.158670 1.948215 -0.000004 0.000001 0.000000 1.604644 -22.429627 96.267609 1.155693 -3.072554 41.217890 3.378607 -4.478594 74.048922 0.000002 -0.000002 0.000005 24.229133 9.425821 5.889158 51.984307 -0.747274 1.954384 8.113968 -0.105736 -6.132085 -60.450220 -1.296483 0.976136 0.000000 0.000004 -0.000000 -17.852726 -7.099948 4.835494 38.290665 -8.033502 0.123571 0.998428 4.182797 -3.656814 2.394689 -0.000005 0.000000 -0.000000 0.000002 0.000000 
19.848381 80.829163 125.366035 -26.626960 23.878003 6.247977 10.835723 -8.376305 2.563372 3.472609 -3.030918 0.142417 3.483442 -3.015859 0.194119 1.919291 0.519049 -0.705008 -5.886287 0.042136 4.789233 -0.000000 -0.000000 0.000000 0.633930 -16.686726 -9.899632 -17.974590 5.386259 -36.353764 0.000078 -68.252455 0.000048 -43.782267 -12.955113 -6.577619 -22.783324 -14.798025 12.273482 3.257483 10.434483 14.701910 3.226679 44.528817 6.786239 -0.000001 0.000002 -0.000002 -10.542914 21.705752 29.210001 0.266378 1.748129 -17.326959 1.569174 3.991227 -42.911473 -0.000000 0.000002 0.000001 -6.185737 13.443107 27.727587 3.740676 5.458424 -68.823950 1.278682 3.654650 -38.556541 -0.000001 0.000000 -0.000000 -0.949035 4.044680 20.534346 2.991884 5.107024 -60.704932 3.282634 5.258940 -63.922545 0.000001 -0.000000 0.000004 1.880764 -2.565729 25.185691 3.171106 5.203128 -62.699504 1.653198 4.079531 -44.105366 -0.000001 -0.000000 0.000001 -0.053828 14.936080 15.948254 -12.490754 -7.181982 60.470274 0.000004 40.345613 -0.000003 -0.237506 -5.163977 25.003847 -20.073134 16.089475 -24.921347 8.794367 -40.952739 -1.386061 -0.635071 -28.404778 -23.779983 -0.000001 -0.000000 -0.000003 1.200592 -5.098981 38.516642 3.062539 -4.376217 69.956225 0.158018 1.204134 -14.952688 -0.000001 -0.000003 -0.000001 2.887273 -6.572573 70.520248 0.642639 -2.362577 30.428814 0.150929 1.177266 -14.611364 0.000005 -0.000003 -0.000004 6.088560 -7.220761 80.657465 0.332356 -1.729378 21.754446 0.002685 -0.158671 1.948212 -0.000005 0.000003 -0.000003 1.741364 -22.446756 96.639807 1.146064 -3.061561 41.038242 3.381333 -4.479378 74.083886 0.000001 0.000004 0.000001 18.127278 8.548101 8.164047 59.016693 2.421427 1.846051 13.065579 -0.139462 -4.478485 -55.002697 5.590684 -4.638461 -0.000000 -0.000000 0.000000 -15.041414 -7.027112 5.349355 40.667360 -8.256192 -0.023062 -2.907859 3.537003 -3.505184 2.704824 0.000007 -0.000003 -0.000000 0.000002 -0.000000 
21.281679 81.650253 129.103363 -26.788480 24.253349 6.906904 10.786598 -7.777513 2.348653 3.523565 -2.907214 0.066991 3.534349 -2.893020 0.116391 1.844139 0.503921 -0.745350 -5.728866 -0.094294 4.804837 -0.000000 -0.000000 -0.000001 0.593360 -16.271766 -10.120287 -18.737710 4.896948 -36.627818 0.000067 -68.037290 0.000045 -43.062331 -12.493737 -6.942954 -22.783319 -14.798033 12.273484 3.229103 10.434625 14.723245 3.199860 44.526382 6.810753 0.000001 0.000003 0.000003 -10.515285 21.549891 29.303735 0.269668 1.758611 -17.434234 1.561254 3.982726 -42.797798 -0.000000 0.000001 -0.000000 -6.147029 13.312815 27.806202 3.733511 5.455667 -68.748702 1.278683 3.654649 -38.556537 -0.000001 -0.000001 0.000005 -0.930537 3.941566 20.802530 2.989722 5.105808 -60.680616 3.277002 5.256210 -63.861244 -0.000000 0.000000 0.000007 1.989244 -2.946600 25.825558 3.202400 5.219095 -63.043834 1.632850 4.058490 -43.818744 0.000001 0.000001 0.000003 -0.004229 14.764398 15.546791 -12.473165 -6.812678 60.865011 0.000015 39.853204 -0.000010 -0.735101 -4.782038 24.783596 -20.073127 16.089474 -24.921347 8.794369 -40.952732 -1.386060 -0.334493 -28.697668 -23.365418 0.000001 -0.000002 0.000003 1.186029 -5.107823 38.515478 3.034995 -4.366105 69.594853 0.158013 1.204134 -14.952686 0.000000 -0.000001 0.000006 2.896795 -6.576603 70.651729 0.642211 -2.361883 30.418913 0.149076 1.170071 -14.520359 0.000003 -0.000000 -0.000004 5.989763 -7.200947 80.754399 0.329860 -1.723136 21.672045 0.002686 -0.158670 1.948214 -0.000001 -0.000000 -0.000005 1.864643 -22.460273 96.962868 1.139764 -3.054305 40.919820 3.358678 -4.472868 73.793657 0.000000 -0.000000 0.000006 13.240365 7.264531 9.241327 64.093225 6.072220 1.412160 9.815936 0.289279 -3.847390 -42.226152 8.609009 -10.089964 0.000002 0.000004 -0.000000 -11.344669 -6.771603 5.264192 41.607501 -7.945641 -0.268685 -6.496707 2.808063 -2.498622 1.418403 0.006215 -0.242835 -0.000000 -0.000000 -0.000000 
